PathFileType	4	(X/Y/Z)	/Users/itak/Documents/Research/Walk-IL/dataset/trc/00216_00009.trc
DataRate	CameraRate	NumFrames	NumMarkers	Units	OrigDataRate	OrigDataStartFrame	OrigNumFrames
100.000000	100.000000	4	53	mm	100.000000	258	517
Frame#	Time	RPSI			LPSI			L3			STRN			T10			C7			CLAV			RBAK			LBAK			LSHO			LUPA			LAEL			LAOL			LWTS			LWPS			LFRA			LIFD			LHPS			LHTS			RSHO			RUPA			RAEL			RAOL			RWPS			RFRA			RIFD			RHTS			RHPS			RBHD			LFHD			RFHD			LBHD			LHIP			RHIP			RASI			LASI			LKNE			LTHI			LANK			LTIP			LTOE			LMT1			LMT5			LHEE			RKNE			RTHI			RANK			RTIP			RTOE			RMT1			RMT5			RHEE			RWTS			
		X1	Y1	Z1	X2	Y2	Z2	X3	Y3	Z3	X4	Y4	Z4	X5	Y5	Z5	X6	Y6	Z6	X7	Y7	Z7	X8	Y8	Z8	X9	Y9	Z9	X10	Y10	Z10	X11	Y11	Z11	X12	Y12	Z12	X13	Y13	Z13	X14	Y14	Z14	X15	Y15	Z15	X16	Y16	Z16	X17	Y17	Z17	X18	Y18	Z18	X19	Y19	Z19	X20	Y20	Z20	X21	Y21	Z21	X22	Y22	Z22	X23	Y23	Z23	X24	Y24	Z24	X25	Y25	Z25	X26	Y26	Z26	X27	Y27	Z27	X28	Y28	Z28	X29	Y29	Z29	X30	Y30	Z30	X31	Y31	Z31	X32	Y32	Z32	X33	Y33	Z33	X34	Y34	Z34	X35	Y35	Z35	X36	Y36	Z36	X37	Y37	Z37	X38	Y38	Z38	X39	Y39	Z39	X40	Y40	Z40	X41	Y41	Z41	X42	Y42	Z42	X43	Y43	Z43	X44	Y44	Z44	X45	Y45	Z45	X46	Y46	Z46	X47	Y47	Z47	X48	Y48	Z48	X49	Y49	Z49	X50	Y50	Z50	X51	Y51	Z51	X52	Y52	Z52	X53	Y53	Z53	

259	2.58	-766.6184692382812	1003.629455566406	-122.4088821411133	-763.5125122070312	1014.201599121094	-240.7716674804688	-763.414794921875	1094.286010742188	-206.0296783447266	-502.5156555175781	1268.553344726562	-194.9884185791016	-757.7491455078125	1220.998657226562	-207.4740600585938	-684.5545654296875	1478.650146484375	-207.7714233398438	-522.89453125	1387.187622070312	-192.9421997070312	-770.6798095703125	1343.195068359375	-143.2053985595703	-697.6914672851562	1443.415649414062	-321.2032470703125	-603.4188232421875	1441.1142578125	-364.5474853515625	-613.8901977539062	1329.259399414062	-450.5364685058594	-553.4320068359375	1131.533813476562	-490.5884094238281	-629.8886108398438	1093.47216796875	-467.2143859863281	-405.4137878417969	951.0328369140625	-390.2061767578125	-393.9014587402344	929.4981689453125	-472.1502380371094	-491.4047546386719	1041.257568359375	-490.7384948730469	-318.3587951660156	778.608642578125	-378.9444274902344	-342.84423828125	857.3736572265625	-455.0484313964844	-325.3373107910156	876.46044921875	-391.7000122070312	-641.7867431640625	1434.456787109375	-35.04124450683594	-671.513671875	1372.362915039062	29.45252799987793	-732.6460571289062	1099.670654296875	68.81114196777344	-754.939453125	1094.159057617188	-23.66702270507812	-684.781005859375	863.03369140625	108.0204772949219	-717.3941040039062	1029.198364257812	86.65185546875	-648.5438842773438	680.9279174804688	42.59076690673828	-606.2877807617188	740.6605834960938	73.90379333496094	-662.79052734375	751.3735961914062	117.2195053100586	-645.4777221679688	1628.715209960938	-146.4057769775391	-444.3807373046875	1679.314208984375	-239.6656188964844	-445.34912109375	1676.992065429688	-139.7588500976562	-599.8649291992188	1639.102905273438	-278.4530334472656	-671.2586669921875	953.7769165039062	-386.2048034667969	-663.5208129882812	964.93359375	-19.59226989746094	-571.4979248046875	1008.078979492188	-62.02726745605469	-564.8837280273438	990.84814453125	-344.0343933105469	-746.2386474609375	483.1513366699219	-332.6048889160156	-710.1058349609375	622.6370849609375	-364.6082458496094	-1011.525146484375	67.22724151611328	-306.3607482910156	-880.3363647460938	289.3180236816406	-331.4500732421875	-807.6222534179688	42.57979202270508	-239.7463989257812	-873.8643798828125	46.94167327880859	-201.3720092773438	-891.0327758789062	36.90240478515625	-317.2515869140625	-1071.838012695312	101.2273483276367	-260.6231079101562	-444.0220031738281	523.426513671875	-55.54990005493164	-548.3812866210938	768.6673583984375	-10.90001392364502	-381.5123596191406	32.12874603271484	-78.26306915283203	-395.9519653320312	409.8664245605469	-73.47238159179688	-181.0648651123047	80.96170043945312	-127.3472671508789	-235.9754638671875	69.32406616210938	-170.2569427490234	-271.1213989257812	42.11397552490234	-61.27490997314453	-446.2676086425781	30.733154296875	-135.290771484375	-622.5694580078125	866.445068359375	49.83846664428711	
260	2.59	-755.6710205078125	1004.4287109375	-121.2958297729492	-751.9802856445312	1014.325805664062	-239.7127075195312	-752.3452758789062	1094.542114257812	-205.0651702880859	-491.5580139160156	1269.162719726562	-193.8167266845703	-746.79736328125	1221.305297851562	-206.0223693847656	-673.9957275390625	1478.970581054688	-205.9079284667969	-512.1258544921875	1387.760009765625	-191.5911254882812	-759.9034423828125	1343.323364257812	-141.4595031738281	-687.2969360351562	1443.933227539062	-319.3468017578125	-593.0601196289062	1441.803100585938	-363.0566711425781	-604.2747802734375	1329.811401367188	-449.0053405761719	-545.5437622070312	1131.479125976562	-488.8208618164062	-622.142822265625	1094.110107421875	-464.9085693359375	-398.73095703125	949.6737670898438	-388.9850158691406	-387.8105163574219	928.0092163085938	-470.9979553222656	-484.2993469238281	1040.650756835938	-489.1573791503906	-313.27001953125	776.4852905273438	-378.0979614257812	-337.4013977050781	855.4225463867188	-454.0971374511719	-319.3268432617188	874.3919677734375	-390.8363952636719	-630.7705688476562	1434.36962890625	-33.36455535888672	-660.2096557617188	1372.092651367188	31.0543155670166	-721.0515747070312	1099.403442382812	70.27283477783203	-743.6380004882812	1093.972045898438	-22.12018966674805	-673.7406616210938	862.7329711914062	109.4730377197266	-705.8643798828125	1028.938720703125	88.06915283203125	-639.050537109375	680.2603149414062	43.80503082275391	-596.2633056640625	739.8160400390625	74.80580139160156	-652.4132080078125	750.9434204101562	118.506462097168	-635.6326904296875	1628.819458007812	-144.3340454101562	-434.9673461914062	1680.430541992188	-237.9046630859375	-435.7356872558594	1677.995361328125	-138.0184936523438	-590.3241577148438	1639.537353515625	-276.4626159667969	-659.6582641601562	953.2235717773438	-384.727294921875	-652.528076171875	966.4309692382812	-18.09836006164551	-560.6817016601562	1009.359985351562	-60.60857772827148	-553.1475830078125	990.5594482421875	-342.4506530761719	-734.8331298828125	482.6967163085938	-331.7496337890625	-698.4343872070312	622.2276611328125	-363.1648254394531	-1009.449523925781	71.55072784423828	-307.5168151855469	-873.0901489257812	291.5233764648438	-331.5038757324219	-807.3455200195312	42.5566291809082	-239.9766998291016	-873.0314331054688	47.98270034790039	-201.7396087646484	-890.3461303710938	36.96460723876953	-317.3944396972656	-1068.717895507812	107.894287109375	-262.0465698242188	-432.3033447265625	524.8624877929688	-55.90149688720703	-536.3268432617188	770.166748046875	-10.34547233581543	-380.2357482910156	32.28203964233398	-78.11808776855469	-385.8932800292969	410.0875854492188	-74.13401794433594	-177.8980865478516	74.38201141357422	-129.2096557617188	-233.7787017822266	64.46525573730469	-171.3797607421875	-269.4046020507812	39.6925163269043	-61.73290252685547	-445.4422607421875	32.23292541503906	-135.1493988037109	-611.7794799804688	865.8194580078125	50.99228286743164	
261	2.6	-744.6513671875	1005.34521484375	-120.2603454589844	-740.3606567382812	1014.610656738281	-238.725341796875	-741.2654418945312	1095.039184570312	-204.1611175537109	-480.5416259765625	1270.001953125	-192.5118865966797	-735.8238525390625	1221.860107421875	-204.6530609130859	-663.3621215820312	1479.521362304688	-204.0581970214844	-501.3109130859375	1388.5625	-190.1405792236328	-749.067138671875	1343.701293945312	-139.7501373291016	-676.745361328125	1444.696533203125	-317.5052185058594	-582.514892578125	1442.74267578125	-361.5122985839844	-594.4739379882812	1330.630004882812	-447.446044921875	-537.8582763671875	1131.618896484375	-487.0529174804688	-614.61865234375	1095.058227539062	-462.4932250976562	-392.3526306152344	948.3545532226562	-387.9166870117188	-382.1684265136719	926.5308227539062	-469.9934997558594	-477.5113220214844	1040.168090820312	-487.6303100585938	-308.7535400390625	774.2775268554688	-377.4731140136719	-332.513671875	853.4049682617188	-453.351318359375	-313.7605285644531	872.2499389648438	-390.2112426757812	-619.7771606445312	1434.579711914062	-31.67497634887695	-648.9440307617188	1372.112915039062	32.66692733764648	-709.2954711914062	1099.364501953125	71.67589569091797	-732.1341552734375	1094.011596679688	-20.63668060302734	-662.3355102539062	862.7164306640625	110.8822937011719	-694.1233520507812	1028.925659179688	89.42569732666016	-629.2210083007812	679.8944091796875	44.95043563842773	-585.8756713867188	739.2714233398438	75.62861633300781	-641.6718139648438	750.8041381835938	119.7395706176758	-625.6729736328125	1629.154541015625	-142.2548370361328	-425.41357421875	1681.707763671875	-236.1399993896484	-425.9814147949219	1679.174926757812	-136.2701416015625	-580.6640625	1640.166381835938	-274.4635009765625	-647.9727172851562	952.9038696289062	-383.3380737304688	-641.523193359375	968.1363525390625	-16.65446090698242	-549.8363647460938	1010.960632324219	-59.12607192993164	-541.3175048828125	990.543212890625	-340.7674255371094	-722.6217651367188	482.2328491210938	-331.0458679199219	-686.1932373046875	621.8831787109375	-361.7847290039062	-1006.966613769531	76.32529449462891	-308.7711181640625	-865.20703125	293.9792785644531	-331.7158508300781	-807.0918579101562	42.55464172363281	-240.210693359375	-872.0701904296875	49.07783889770508	-202.1262817382812	-889.485595703125	37.06279373168945	-317.5524291992188	-1064.896728515625	115.1461944580078	-263.5585327148438	-420.8039245605469	526.33203125	-56.09532165527344	-524.2850952148438	771.9150390625	-9.669004440307617	-379.162109375	32.5255241394043	-77.90631866455078	-376.2029113769531	410.3497924804688	-74.6195068359375	-175.2439880371094	68.3692626953125	-130.6570129394531	-231.9649505615234	60.11039733886719	-172.0900268554688	-268.060791015625	37.79285430908203	-61.70728302001953	-444.6770324707031	33.56378555297852	-135.0044555664062	-600.6607055664062	865.4996948242188	52.09661865234375	
262	2.61	-733.5360717773438	1006.302795410156	-119.2431182861328	-728.6986694335938	1015.008178710938	-237.7596893310547	-730.2097778320312	1095.744018554688	-203.2481842041016	-469.4872741699219	1271.0380859375	-191.0873260498047	-724.8475952148438	1222.618041992188	-203.3507232666016	-652.68701171875	1480.270263671875	-202.2339782714844	-490.4745483398438	1389.561401367188	-188.6037750244141	-738.187255859375	1344.288208007812	-138.0748443603516	-666.068115234375	1445.66845703125	-315.693603515625	-571.8147583007812	1443.88720703125	-359.9227600097656	-584.4898681640625	1331.677978515625	-445.8705139160156	-530.3629150390625	1131.928466796875	-485.3034362792969	-607.2969360351562	1096.283081054688	-460.001953125	-386.2584533691406	947.0714111328125	-387.0022583007812	-376.9489440917969	925.0636596679688	-469.1260070800781	-471.0289306640625	1039.79443359375	-486.1672668457031	-304.8080749511719	771.98583984375	-377.0488586425781	-328.1609191894531	851.3240356445312	-452.7939758300781	-308.631103515625	870.02783203125	-389.8097229003906	-608.8319702148438	1435.06640625	-29.98324012756348	-637.7459716796875	1372.4130859375	34.28789901733398	-697.4337158203125	1099.5458984375	73.01694488525391	-720.4693603515625	1094.26318359375	-19.23079872131348	-650.5789184570312	862.9782104492188	112.2408447265625	-682.225830078125	1029.148803710938	90.71924591064453	-618.965576171875	679.8275756835938	46.06013107299805	-575.0892333984375	739.0553588867188	76.395751953125	-630.5430297851562	750.9571533203125	120.9244155883789	-615.61328125	1629.690063476562	-140.1884155273438	-415.7256774902344	1683.110107421875	-234.3772430419922	-416.0975036621094	1680.4921875	-134.5188751220703	-570.891357421875	1640.96484375	-272.4732360839844	-636.2340698242188	952.8092041015625	-382.0039367675781	-630.493896484375	969.9384155273438	-15.2400426864624	-538.9443359375	1012.779479980469	-57.59226989746094	-529.4568481445312	990.7957763671875	-339.0101623535156	-709.5061645507812	481.7176208496094	-330.5492248535156	-673.3501586914062	621.5737915039062	-360.519287109375	-1003.982360839844	81.59068298339844	-310.0967407226562	-856.5878295898438	296.6679992675781	-332.1103210449219	-806.8873901367188	42.55554580688477	-240.4088134765625	-870.9658203125	50.21017456054688	-202.5280151367188	-888.4357299804688	37.23360443115234	-317.7313537597656	-1060.235107421875	122.9882125854492	-265.1192016601562	-409.7038879394531	527.6393432617188	-56.11147689819336	-512.280517578125	773.7424926757812	-8.867446899414062	-378.2729797363281	32.83001327514648	-77.70074462890625	-366.982177734375	410.5317687988281	-74.93531799316406	-173.0507659912109	62.91937255859375	-131.7683258056641	-230.4685363769531	56.21751022338867	-172.4885406494141	-267.0335693359375	36.34859085083008	-61.33040237426758	-443.9728698730469	34.71446228027344	-134.8865356445312	-589.2164916992188	865.4971923828125	53.15841293334961	
